<?xml version="1.0" encoding="UTF-8"?>
<svg width="194px" height="70px" viewBox="0 0 194 70" version="1.1" xmlns="http://www.w3.org/2000/svg" xmlns:xlink="http://www.w3.org/1999/xlink">
    <!-- Generator: sketchtool 56 (101010) - https://sketch.com -->
    <title>9EAF69C2-A778-498D-976B-B9D6DA878283</title>
    <desc>Created with sketchtool.</desc>
    <defs>
        <radialGradient cx="74.1791473%" cy="40.5199456%" fx="74.1791473%" fy="40.5199456%" r="54.9959478%" gradientTransform="translate(0.741791,0.405199),scale(0.909101,1.000000),translate(-0.741791,-0.405199)" id="radialGradient-1">
            <stop stop-color="#FFE777" offset="0%"></stop>
            <stop stop-color="#FFCE0A" offset="100%"></stop>
        </radialGradient>
        <radialGradient cx="69.5229225%" cy="-0.0355554288%" fx="69.5229225%" fy="-0.0355554288%" r="72.3992636%" gradientTransform="translate(0.695229,-0.000356),scale(0.690612,1.000000),translate(-0.695229,0.000356)" id="radialGradient-2">
            <stop stop-color="#75C8FF" offset="0%"></stop>
            <stop stop-color="#0091EE" stop-opacity="0.99608" offset="100%"></stop>
        </radialGradient>
        <linearGradient x1="-0.0405054816%" y1="49.949053%" x2="99.9697381%" y2="49.949053%" id="linearGradient-3">
            <stop stop-color="#FF0606" offset="0%"></stop>
            <stop stop-color="#FF2121" offset="100%"></stop>
        </linearGradient>
    </defs>
    <g id="Desktop" stroke="none" stroke-width="1" fill="none" fill-rule="evenodd">
        <g id="Home" transform="translate(-79.000000, -10.000000)" fill-rule="nonzero">
            <g id="MenuPrincipal">
                <g id="LogoAsociacionDrupalColombia-1-EnCurvas-svg" transform="translate(79.000000, 10.000000)">
                    <ellipse id="Oval" fill="#E2E2E2" cx="35.1804124" cy="35" rx="35.1804124" ry="35"></ellipse>
                    <ellipse id="Oval" fill="#F2F2F2" cx="36.185567" cy="33" rx="30.1546392" ry="30"></ellipse>
                    <g id="Group" transform="translate(18.092784, 12.000000)">
                        <path d="M17.4818221,0.0194064554 C17.4818221,0.0194064554 16.4994406,2.52477984 15.1133705,4.20926017 C13.7273811,5.89391515 11.7468808,7.75520769 9.18317411,10.1286172 C6.61946738,12.5020267 0.933894064,17.3480126 0.933894064,24.2256604 C0.933894064,33.026876 8.34230732,40.1620475 17.4810161,40.1620475 L17.482084,40.1620475 C26.6205913,40.1620475 34.0288031,33.026876 34.0292061,24.2256604 C34.0292061,17.3480126 28.3442373,12.5020267 25.7805305,10.1286172 C23.2168238,7.75520769 21.2364646,5.89393456 19.8503341,4.20926017 C18.464264,2.52462459 17.481278,0.0194064554 17.481278,0.0194064554 L17.4818221,0.0194064554 Z" id="Path" fill="#1A83B0"></path>
                        <path d="M26.2471481,9.08222111 C24.2195656,17.3437812 17.2790071,24.0083001 8.08196706,26.5249372 C12.6835842,30.2416124 18.8513799,32.8687552 25.7204225,34.0379524 C30.0462987,31.5566516 33.4121276,28.370004 35.514818,24.7649658 C35.5228781,24.5582676 35.5329531,24.3516859 35.5329531,24.1431636 C35.5329531,17.2655158 29.8473798,12.4195298 27.2836731,10.0461203 C26.9179676,9.70755532 26.5909907,9.40091392 26.2490624,9.08222111 L26.2471481,9.08222111 Z" id="Path" fill="url(#radialGradient-1)"></path>
                        <path d="M8.27319222,26.5286245 L8.2590871,26.6592299 C12.8406575,30.307628 18.9404598,32.8871397 25.7232436,34.0445506 C26.5944005,33.5445577 27.428791,33.0146792 28.2232758,32.4569084 C27.3596191,32.3408578 26.4907234,32.2243221 25.4766054,32.0790065 C14.9108613,30.5652448 8.27440123,26.5283722 8.27440123,26.5283722 L8.27319222,26.5286245 Z" id="Path" fill-opacity="0.17647" fill="#000000"></path>
                        <path d="M1.05942965,19.0959521 C0.552592307,20.4734417 0.240264598,21.9653906 0.240264598,23.5695282 C0.240566851,32.3707438 7.64887935,39.5055271 16.7873866,39.5059152 L16.788777,39.5059152 C22.0669138,39.5059152 26.7639195,37.1226084 29.7936998,33.4161695 C17.0849845,32.7608718 5.98223825,27.2278391 1.05955055,19.0959521 L1.05942965,19.0959521 Z" id="Path" fill="url(#radialGradient-2)"></path>
                        <path d="M24.8366359,32.8939224 C24.7471691,32.9599238 22.7023294,34.4598293 19.4994591,35.9403672 C16.3520018,37.3953468 12.4090156,38.7403306 12.1005164,38.8451254 C12.1607654,38.8625912 12.2218205,38.8779223 12.282271,38.8946119 L20.0324312,39.1885809 C20.4677959,39.1053272 20.897317,39.0067424 21.3196042,38.8913516 L29.1670898,33.370021 C27.6985854,33.2751234 26.25277,33.1156218 24.8368172,32.8939224 L24.8366359,32.8939224 Z" id="Path" fill-opacity="0.076923" fill="#000000"></path>
                        <path d="M34.6900713,25.9658373 C30.1385908,32.7362037 21.1965212,37.6013618 10.6126275,39.0657768 C12.8817387,40.1927485 15.45411,40.8329481 18.1830482,40.8329481 L18.1841161,40.8329481 C26.9492407,40.832657 34.1180683,34.2679383 34.6900713,25.9658373 L34.6900713,25.9658373 Z" id="Path" fill="url(#linearGradient-3)"></path>
                        <path d="M34.6874107,25.9251458 C34.6826125,25.9982619 34.6726429,26.0698891 34.6665652,26.1427485 C34.6734959,26.1329928 34.6815462,26.1237506 34.6884237,26.1134815 L34.6874107,25.9251458 Z M34.687464,25.9251458 C34.687464,25.9251458 32.1715012,28.8167759 30.1182982,30.372753 C28.0650951,31.9287814 24.9223275,32.8628092 24.9223275,32.8628092 C25.6371527,32.9747426 26.3601348,33.0696293 27.0892479,33.1496257 C30.26812,31.1007926 32.8477094,28.6481387 34.687464,25.9252998 L34.687464,25.9251458 Z" id="Shape" fill-opacity="0.20362" fill="#000000"></path>
                    </g>
                    <g id="Group" transform="translate(74.873969, 12.000000)">
                        <g transform="translate(12.930969, 30.906449)" fill="#535353">
                            <path d="M0.428768055,7.94918307 C0.428768055,6.80465373 0.634483427,5.76745585 1.04591417,4.83758943 C1.46442928,3.90049967 2.03191272,3.10288921 2.7483645,2.44475805 C3.46481629,1.78665335 4.30542803,1.27877035 5.27019974,0.92110907 C6.23493209,0.556290591 7.27062611,0.373881352 8.37728179,0.373881352 C9.13629221,0.373881352 9.79244822,0.434671202 10.3457498,0.556250903 C10.8990514,0.677830603 11.3991482,0.849510666 11.8460401,1.07129109 L11.8460401,4.37616867 L11.824787,4.39760057 C11.6900136,4.19014776 11.5020354,3.99700935 11.2608523,3.81818532 C11.0196692,3.63934806 10.7430184,3.48555437 10.4308999,3.35680425 C10.1258657,3.22808058 9.79246134,3.12793277 9.43068671,3.05636083 C9.0689252,2.98478888 8.69651747,2.94900291 8.31346352,2.94900291 C7.54025815,2.94900291 6.83444602,3.07060907 6.19602715,3.31382139 C5.56470575,3.54987651 5.02205036,3.88250085 4.56806099,4.31169439 C4.11407161,4.74088793 3.76293663,5.24877092 3.51465607,5.83534337 C3.2663755,6.42191581 3.14223522,7.06213414 3.14223522,7.75599835 C3.14223522,8.66447257 3.29120356,9.42986904 3.58914024,10.0521878 C3.88707692,10.6673625 4.26658213,11.1645163 4.72765586,11.5436492 C5.1958402,11.9227689 5.71012535,12.1945901 6.27051132,12.359113 C6.8309104,12.5236358 7.37357235,12.6058973 7.89849716,12.6058973 C8.28864858,12.6058973 8.68234219,12.5629673 9.07957798,12.4771075 C9.48391124,12.3841036 9.86696519,12.2517683 10.2287398,12.0801015 C10.5976119,11.9084214 10.9381072,11.7009752 11.2502258,11.4577629 C11.5623443,11.2145506 11.8248067,10.9391507 12.037613,10.6315633 L12.0694926,10.6529952 L12.0694926,13.7110091 C11.5303859,14.161661 10.8848696,14.5193223 10.1329435,14.783993 C9.38101748,15.0486637 8.53686355,15.180999 7.60048176,15.180999 C6.49389167,15.180999 5.49722723,15.0021683 4.61048843,14.6445071 C3.72374963,14.2868458 2.96828139,13.789692 2.34408371,13.1530456 C1.72693104,12.5164125 1.25165578,11.754588 0.918257947,10.8675722 C0.59195759,9.98056952 0.428768055,9.00773347 0.428768055,7.94906401 L0.428768055,7.94918307 Z" id="Path"></path>
                            <path d="M14.3219844,8.06824916 C14.3219844,7.04533921 14.4957743,6.06893118 14.8433539,5.13902507 C15.1980442,4.20910573 15.6981475,3.39006337 16.3436639,2.681898 C16.9962646,1.97371939 17.7801358,1.4121839 18.6952777,0.997291519 C19.6103539,0.575255173 20.6353558,0.364236999 21.7702833,0.364236999 C22.6995414,0.364236999 23.5898093,0.521609287 24.4410869,0.836353863 C25.2994227,1.15109844 26.0548909,1.61605811 26.7074916,2.23123287 C27.3601054,2.84642087 27.8779393,3.60467337 28.2609933,4.50599039 C28.6511447,5.40729418 28.8462204,6.44449206 28.8462204,7.61758403 C28.8462204,8.36867934 28.7540057,9.07685795 28.5695762,9.74211984 C28.3922311,10.4073817 28.1368596,11.0189911 27.8034617,11.576948 C27.4771614,12.1348917 27.0870165,12.6391961 26.6330271,13.0898612 C26.1790246,13.5333559 25.6789213,13.9089036 25.1327172,14.2165042 C24.5865131,14.5240916 24.0048412,14.7601467 23.3877017,14.9246696 C22.7705621,15.0891924 22.1356854,15.1714539 21.4830716,15.1714539 C20.482865,15.1714539 19.5464832,14.9997804 18.6739262,14.6564335 C17.8085061,14.3130734 17.0530378,13.8302274 16.4075215,13.2078954 C15.7620051,12.5855502 15.2512687,11.8380136 14.8753123,10.9652857 C14.5064401,10.0925975 14.3219844,9.12690539 14.3219844,8.06820947 L14.3219844,8.06824916 Z M17.0671738,7.95017529 C17.0671738,8.61542396 17.1877653,9.23417732 17.4289484,9.80643537 C17.6772158,10.3715495 18.0106137,10.8615527 18.4291419,11.2764451 C18.847657,11.6913375 19.3406628,12.0168112 19.9081594,12.2528663 C20.4756428,12.4817643 21.0821427,12.5962132 21.7276591,12.5962132 C22.3377012,12.5962132 22.9087334,12.4889148 23.4407556,12.2743181 C23.9798754,12.0525773 24.444511,11.7378328 24.8346624,11.3300844 C25.2318982,10.9152052 25.5440102,10.4144794 25.7709983,9.82790696 C25.9979996,9.24133451 26.1115002,8.58322981 26.1115002,7.85359285 C26.1115002,7.20980254 26.0086458,6.59462116 25.802937,6.00804872 C25.597215,5.42147628 25.2957362,4.9064427 24.8985004,4.462948 C24.508349,4.01228288 24.0295315,3.65461498 23.4620481,3.38994431 C22.901649,3.12527363 22.2667723,2.9929383 21.557418,2.9929383 C20.8622455,2.9929383 20.2380085,3.12885223 19.6847069,3.4006801 C19.1314053,3.66535077 18.6596788,4.02659065 18.2695273,4.48439974 C17.8793759,4.93506487 17.5814458,5.46083423 17.375737,6.06170783 C17.1700282,6.66258144 17.0671738,7.29207059 17.0671738,7.95017529 L17.0671738,7.95017529 Z" id="Shape"></path>
                            <path d="M31.7967381,0.567085916 C31.8535442,0.581373846 32.0025125,0.595661776 32.2436432,0.609949706 C32.4919237,0.624237636 32.7863051,0.631381601 33.1267873,0.631381601 C33.2757556,0.631381601 33.4531008,0.62807421 33.6588227,0.621459428 C33.8645315,0.614844645 34.1482732,0.604128698 34.5100479,0.589311585 L34.5100479,12.3278383 L37.3510729,12.3278383 C37.4574695,12.3278383 37.5851519,12.3278383 37.7341203,12.3278383 C37.8830886,12.3212235 38.0320569,12.3140795 38.1810253,12.3064064 C38.3299936,12.2997916 38.4683157,12.2926476 38.5959916,12.2849745 C38.7236413,12.2783597 38.8194048,12.2712157 38.8832821,12.2635426 L38.8407759,13.5725948 C38.8342163,13.7371177 38.827132,13.9016405 38.8195229,14.0661634 C38.8195229,14.2306863 38.8162431,14.3773294 38.8096835,14.5060927 C38.8096835,14.6348164 38.8096835,14.7421148 38.8096835,14.8279879 C38.8096835,14.9138478 38.8096835,14.9639217 38.8096835,14.9782096 C38.6110721,14.9639217 38.4018146,14.9496337 38.1819108,14.9353458 C37.9691045,14.928731 37.7279214,14.9215871 37.4583616,14.9139139 C37.1958992,14.9139139 36.897969,14.9106065 36.5645712,14.9039917 C36.2311734,14.9039917 35.8481194,14.9039917 35.4154094,14.9039917 L33.6597476,14.9039917 C33.4469413,14.9039917 33.2412259,14.9039917 33.0426015,14.9039917 C32.843977,14.9106065 32.6630897,14.9177505 32.4999395,14.9254236 C32.3367894,14.9320384 32.1949185,14.9391824 32.074327,14.9468555 C31.9537617,14.9534703 31.8615403,14.9606143 31.797663,14.9682874 L31.7967381,0.567085916 Z" id="Path"></path>
                            <path d="M40.9080118,8.06824916 C40.9080118,7.04533921 41.0818082,6.06893118 41.4294009,5.13902507 C41.7840781,4.20910573 42.2841748,3.39006337 42.9296912,2.681898 C43.582305,1.97371939 44.3661763,1.4121839 45.281305,0.997291519 C46.1963813,0.575255173 47.2213831,0.364236999 48.3563107,0.364236999 C49.2855687,0.364236999 50.1758366,0.521609287 51.0271142,0.836353863 C51.8854369,1.15109844 52.6409051,1.61605811 53.293519,2.23123287 C53.9461197,2.84642087 54.463947,3.60467337 54.847001,4.50599039 C55.2371524,5.40729418 55.4322281,6.44449206 55.4322281,7.61758403 C55.4322281,8.36867934 55.3400133,9.07685795 55.1555838,9.74211984 C54.9782387,10.4073817 54.7228672,11.0189911 54.3894694,11.576948 C54.063169,12.1348917 53.6730242,12.6391961 53.2190348,13.0898612 C52.7650454,13.5333559 52.2649421,13.9089036 51.7187249,14.2165042 C51.1725207,14.5240916 50.5908489,14.7601467 49.9737093,14.9246696 C49.3565698,15.0891924 48.7216931,15.1714539 48.0690792,15.1714539 C47.0688857,15.1714539 46.1325039,14.9997804 45.2599339,14.6564335 C44.3945137,14.3130734 43.6390455,13.8302274 42.9935292,13.2078954 C42.3480128,12.5855502 41.8372764,11.8380136 41.4613199,10.9652857 C41.0924478,10.0925975 40.9080118,9.12690539 40.9080118,8.06820947 L40.9080118,8.06824916 Z M43.6532011,7.95017529 C43.6532011,8.61542396 43.7737927,9.23417732 44.0149757,9.80643537 C44.2632432,10.3715495 44.596641,10.8615527 45.0151692,11.2764451 C45.4336843,11.6913375 45.9266902,12.0168112 46.4941867,12.2528663 C47.0616702,12.4817643 47.6681701,12.5962132 48.3136864,12.5962132 C48.9237416,12.5962132 49.4947738,12.4889148 50.026783,12.2743181 C50.5659028,12.0525773 51.0305384,11.7378328 51.4206898,11.3300844 C51.8179256,10.9152052 52.1300441,10.4144794 52.3570453,9.82790696 C52.5840335,9.24133451 52.6975275,8.58322981 52.6975275,7.85359285 C52.6975275,7.20980254 52.5946731,6.59462116 52.3889643,6.00804872 C52.1832424,5.42147628 51.8817635,4.9064427 51.4845277,4.462948 C51.0943763,4.01228288 50.6155589,3.65461498 50.0480754,3.38994431 C49.4876763,3.12527363 48.8527996,2.9929383 48.1434453,2.9929383 C47.4482729,2.9929383 46.8240358,3.12885223 46.2707342,3.4006801 C45.7174326,3.66535077 45.2457061,4.02659065 44.8555547,4.48439974 C44.4654164,4.93506487 44.1674863,5.46083423 43.9617643,6.06170783 C43.7560555,6.66258144 43.6532011,7.29207059 43.6532011,7.95017529 Z" id="Shape"></path>
                            <path d="M58.4024443,0.586930264 C58.6294324,0.601218194 58.8245015,0.611934141 58.9876517,0.619078106 C59.1578994,0.625692888 59.3104165,0.62900028 59.445203,0.62900028 C59.8495362,0.62900028 60.190025,0.621856315 60.4666692,0.607568385 C60.7504109,0.593280455 60.9490354,0.57184856 61.0625426,0.5432727 L64.6377827,6.67001645 L68.0746811,0.5432727 C68.1314872,0.55756063 68.2237019,0.57184856 68.3513253,0.58613649 C68.4860987,0.592751272 68.6350605,0.599895237 68.7982107,0.607568385 C68.961374,0.614183167 69.1316216,0.621327132 69.3089536,0.62900028 C69.4862988,0.62900028 69.6494555,0.62900028 69.7984238,0.62900028 C70.0466913,0.62900028 70.2524001,0.625692888 70.4155503,0.619078106 C70.5857979,0.612463324 70.7844224,0.601747376 71.0114236,0.586930264 L71.0114236,14.9006579 L70.1601985,14.9006579 C69.9473791,14.9006579 69.7416637,14.9006579 69.5430524,14.9006579 C69.3444279,14.9072727 69.1635406,14.9144166 69.0003904,14.9220898 C68.8372402,14.9287046 68.6953694,14.9358485 68.5747778,14.9435217 C68.4542125,14.9501365 68.3619912,14.9572804 68.2981139,14.9649536 L68.2981139,5.16859314 L64.7122472,11.6279282 L61.115754,5.68355395 L61.115754,14.9649536 C61.0518636,14.9583388 60.9596488,14.9511948 60.8391097,14.9435217 C60.7185444,14.9369069 60.5766736,14.9297629 60.4134972,14.9220898 C60.2503339,14.915475 60.0694465,14.908331 59.8708352,14.9006579 C59.6722108,14.9006579 59.4664954,14.9006579 59.2536891,14.9006579 L58.4024443,14.9006579 L58.4024443,0.586930264 Z" id="Path"></path>
                            <path d="M74.8341835,0.705996347 C75.4726417,0.591560611 76.0649532,0.509292563 76.6111573,0.459192201 C77.1644589,0.401908185 77.6752019,0.373266177 78.1433862,0.373266177 C79.051365,0.373266177 79.8280863,0.473413983 80.4735502,0.673709594 C81.126164,0.873991975 81.6581863,1.13508405 82.069617,1.45698582 C82.4881321,1.77888759 82.7931532,2.14727805 82.9846802,2.56215721 C83.1833046,2.96990562 83.2826168,3.384798 83.2826168,3.80683435 C83.2826168,4.22172673 83.2010417,4.62946192 83.0378916,5.03003991 C82.8747283,5.42347394 82.6299964,5.78114184 82.3036961,6.10304361 C82.7364061,6.28902483 83.1230088,6.52507996 83.4635042,6.81120898 C83.8110838,7.09733801 84.101923,7.41923978 84.3360218,7.7769143 C84.5701074,8.13457558 84.7474459,8.52085241 84.8680375,8.9357448 C84.9956871,9.34347998 85.059512,9.76194435 85.059512,10.1911379 C85.059512,10.9422332 84.9034527,11.6254079 84.5913342,12.2406621 C84.2792157,12.8486796 83.828775,13.3708638 83.2400123,13.8072145 C82.6512495,14.2435653 81.9312687,14.5833468 81.0800698,14.8265591 C80.2288446,15.0626142 79.2641254,15.1806418 78.1859121,15.1806418 C77.944729,15.1806418 77.6751691,15.1699258 77.3772324,15.148494 C77.0793088,15.1270621 76.77783,15.09842 76.4727958,15.0625679 C76.1748723,15.0339921 75.8804909,14.9982061 75.5896517,14.95521 C75.30591,14.9194902 75.0540872,14.8837042 74.8341835,14.8478521 L74.8341835,0.705996347 Z M77.5475325,5.53452291 C77.6680978,5.56309877 77.7922381,5.58453066 77.9199534,5.59881859 C78.0547268,5.60543337 78.1824092,5.60874077 78.3030008,5.60874077 C78.6931522,5.60874077 79.0265566,5.56581083 79.303214,5.47995095 C79.5869557,5.38694711 79.8139504,5.27249153 79.984198,5.13658421 C80.1615301,4.9935197 80.2892125,4.83972601 80.3672454,4.67520314 C80.4523889,4.50352308 80.4949607,4.33542161 80.4949607,4.17089875 C80.4949607,3.75600636 80.2963428,3.43053261 79.899107,3.19447749 C79.5089556,2.95842236 78.9840308,2.8403948 78.3243326,2.8403948 C78.0051166,2.8403948 77.7461964,2.85111075 77.5475719,2.87254264 L77.5475325,5.53452291 Z M77.5475325,12.4661534 C78.0440937,12.5877331 78.5335573,12.6485229 79.0159235,12.6485229 C79.5550302,12.6485229 80.0302988,12.5877331 80.4417296,12.4661534 C80.8602447,12.3445737 81.2113797,12.1729002 81.4951345,11.951133 C81.7788762,11.7222219 81.9916825,11.4539726 82.1335534,11.1463852 C82.2825217,10.8316407 82.3570059,10.4847019 82.3570059,10.1055691 C82.3570059,9.81229607 82.2825217,9.53331762 82.1335534,9.26863372 C81.984585,8.99681908 81.7646813,8.75718536 81.4738421,8.54973255 C81.1830029,8.34229298 80.824777,8.17777011 80.3991644,8.05616395 C79.9735518,7.93458425 79.4840947,7.8737944 78.9307931,7.8737944 C78.6612332,7.8737944 78.4094105,7.89165431 78.1753249,7.92737414 C77.9412393,7.95595 77.7319752,7.99530795 77.5475325,8.045448 L77.5475325,12.4661534 Z" id="Shape"></path>
                            <path d="M87.8812518,0.586930264 C88.0585838,0.593545046 88.2040034,0.600689011 88.3175106,0.608362159 C88.4380759,0.614976941 88.5480278,0.622120906 88.6473662,0.629794053 C88.7537628,0.629794053 88.860166,0.629794053 88.9665757,0.629794053 C89.0800566,0.629794053 89.2112878,0.629794053 89.3602693,0.629794053 C89.5943549,0.629794053 89.8284405,0.622650089 90.0625261,0.608362159 C90.3037092,0.594074229 90.4810478,0.572642334 90.5945418,0.544066474 L90.5945418,14.965152 C90.5306514,14.9585372 90.4384367,14.9513933 90.3178976,14.9437201 C90.1973323,14.9371053 90.0554614,14.9299614 89.892285,14.9222882 C89.7291348,14.9156735 89.5482475,14.9085295 89.3496231,14.9008563 C89.1509986,14.9008563 88.9452832,14.9008563 88.7324769,14.9008563 L87.8812518,14.9008563 L87.8812518,0.586930264 Z" id="Path"></path>
                            <path d="M97.4254585,1.81727979 C97.5460238,1.47391967 97.6276054,1.22355015 97.6702034,1.06617125 C97.7127096,0.901648381 97.7339627,0.780042221 97.7339627,0.701352769 C97.7339627,0.65848898 97.7306829,0.629846972 97.7241233,0.615426746 L97.7339627,0.593994851 C98.0389837,0.608282781 98.308537,0.618998729 98.5426226,0.626142694 C98.7767214,0.626142694 98.9966251,0.626142694 99.2023339,0.626142694 C99.4080428,0.626142694 99.6385862,0.626142694 99.8939642,0.626142694 C100.156427,0.619527911 100.43662,0.612383946 100.734543,0.604710799 L100.744383,0.626142694 C100.730214,0.669138779 100.723129,0.697780787 100.723129,0.712068717 C100.723129,0.783640663 100.744383,0.901668225 100.786889,1.0661514 C100.829395,1.22353031 100.914519,1.4774718 101.04226,1.82797589 L105.766544,14.9292139 C105.624673,14.9225991 105.457974,14.9154552 105.266447,14.907782 C105.07492,14.907782 104.890491,14.9044746 104.713159,14.8978598 C104.535814,14.8978598 104.376206,14.8978598 104.234335,14.8978598 C104.099562,14.8978598 104.017986,14.8978598 103.98961,14.8978598 L102.585076,14.8978598 L101.584883,11.8076981 L96.7753898,11.8076981 L95.7751766,14.9837859 C95.3921226,14.948066 95.0090687,14.9230622 94.6260147,14.9087742 C94.2500583,14.9021595 93.9202092,14.8988521 93.6364675,14.8988521 L92.7958688,14.8988521 L97.4254585,1.81727979 Z M100.755895,9.23172323 L99.1492012,4.24225902 L97.5850534,9.23172323 L100.755895,9.23172323 Z" id="Shape"></path>
                        </g>
                        <g transform="translate(4.401636, 23.162397) rotate(-90.000000) translate(-4.401636, -23.162397) translate(-18.214344, 19.162397)" fill="#AFAFAF">
                            <path d="M2.01858394,2.34163297 C2.06135248,2.21992097 2.09028028,2.13117044 2.10536734,2.07538136 C2.1204544,2.01703898 2.12799793,1.9739106 2.12799793,1.94599622 C2.12799793,1.93078222 2.12668602,1.9206616 2.12406218,1.91563437 L2.12799793,1.90769663 C2.23610001,1.91298846 2.33165359,1.91695732 2.41465867,1.91960324 C2.49757192,1.91960324 2.57552611,1.91960324 2.64852126,1.91960324 C2.72146392,1.91960324 2.80318332,1.91960324 2.89367946,1.91960324 C2.98669448,1.91695732 3.08601982,1.91431141 3.19165549,1.9116655 L3.19559125,1.91960324 C3.19034358,1.93481724 3.18771974,1.94493785 3.18771974,1.94996509 C3.18771974,1.97536585 3.19526327,2.01723743 3.21035033,2.07557981 C3.22543739,2.13140857 3.25561152,2.22142253 3.3008727,2.34562168 L4.97557596,6.98979426 C4.92532948,6.98714835 4.86622756,6.98450243 4.79827018,6.98185652 C4.730444,6.98185652 4.66504486,6.98053356 4.60207278,6.97788765 C4.53923189,6.97788765 4.4826882,6.97788765 4.43244172,6.97788765 C4.38468789,6.97788765 4.35576009,6.97788765 4.34565832,6.97788765 L3.84778527,6.97788765 L3.49323275,5.88245984 L1.78836193,5.88245984 L1.43380941,7.00830903 C1.29801273,6.99507947 1.16222261,6.98621566 1.02643905,6.98171761 C0.893174374,6.9790717 0.776249642,6.97774874 0.675664855,6.97774874 L0.377688818,6.97774874 L2.01858394,2.34163297 Z M3.19915311,4.96981831 L2.62960995,3.20115118 L2.07516042,4.96981831 L3.19915311,4.96981831 Z" id="Shape"></path>
                            <path d="M5.54108497,5.23890766 L5.55682799,5.22700105 C5.62216153,5.37153405 5.71017158,5.50085966 5.82085814,5.61497788 C5.93145286,5.72914903 6.05969289,5.82676999 6.20557822,5.90784076 C6.35394308,5.98642438 6.51487611,6.04728037 6.68837733,6.09040875 C6.86439743,6.13353714 7.04921394,6.15510133 7.24282686,6.15510133 C7.39621637,6.15510133 7.5408029,6.14240094 7.67658646,6.11700018 C7.8148889,6.09159942 7.93433252,6.05230761 8.0349173,5.99912476 C8.13803409,5.94329599 8.21850061,5.87356296 8.27631686,5.78992565 C8.33666511,5.70366889 8.36683923,5.60097439 8.36683923,5.48184216 C8.36683923,5.3955854 8.34925952,5.31698194 8.31410011,5.24603178 C8.28143334,5.17498902 8.22613598,5.11287621 8.14820802,5.05969336 C8.07028007,5.0038646 7.96718295,4.9582226 7.83891669,4.92276737 C7.71061106,4.88731213 7.55219691,4.86065456 7.36367423,4.84279465 C7.02420221,4.81236665 6.73880091,4.75660403 6.50747033,4.6755068 C6.27612664,4.59189595 6.08879124,4.48793141 5.94546415,4.36361319 C5.80213706,4.23687396 5.69903995,4.09107093 5.63617282,3.92620409 C5.57582457,3.7588501 5.54565044,3.57627549 5.54565044,3.37848027 C5.54565044,3.1553372 5.59091163,2.94867817 5.681434,2.75850317 C5.77195638,2.56832818 5.89894352,2.40350764 6.06239544,2.26404157 C6.22835312,2.1245755 6.42448493,2.01553743 6.65079086,1.93692735 C6.8770968,1.85834374 7.12603988,1.81905193 7.39762012,1.81905193 C7.5635778,1.81905193 7.71444843,1.82791574 7.85023198,1.84564336 C7.98853443,1.86337097 8.11552157,1.88870559 8.23119342,1.92164721 C8.34939727,1.95458882 8.45877848,1.99513744 8.55933702,2.04329305 C8.65996117,2.08893505 8.75551475,2.13967043 8.84599776,2.1954992 L8.77436702,3.31374801 L8.74799746,3.32168574 C8.68764921,3.23040175 8.60969501,3.14799479 8.51413487,3.07446487 C8.41862721,3.00090849 8.31050545,2.93879568 8.1897696,2.88812645 C8.0690731,2.83745721 7.93831419,2.79942221 7.79749286,2.77402145 C7.65919042,2.74610707 7.51460389,2.73214988 7.36373327,2.73214988 C7.22794971,2.73214988 7.10724665,2.74610707 7.0016241,2.77402145 C6.89601466,2.80193583 6.80549229,2.83997083 6.73005698,2.88812645 C6.65711431,2.93376845 6.60057063,2.98953106 6.56042592,3.05541429 C6.52264267,3.11878391 6.50375105,3.18725352 6.50375105,3.26082313 C6.50375105,3.34959351 6.52008443,3.42819697 6.5527512,3.49663351 C6.58541797,3.56251674 6.64327357,3.62211593 6.72631801,3.67543108 C6.81185509,3.72610031 6.9262675,3.77174231 7.06955523,3.81235707 C7.21540121,3.85032592 7.40022428,3.88452435 7.62402445,3.91495235 C7.93080346,3.9530535 8.19231472,4.01265268 8.40855824,4.09374992 C8.62481487,4.17484715 8.80083497,4.27754826 8.93661853,4.40185325 C9.07492097,4.52356525 9.17550576,4.66683482 9.23837289,4.83166197 C9.30121379,4.99647589 9.33263423,5.18284738 9.33263423,5.39077645 C9.33263423,5.59109852 9.30370643,5.77240309 9.24585083,5.93469016 C9.18799523,6.09443716 9.10878815,6.23643669 9.0082296,6.36068876 C8.91022929,6.48491438 8.79330456,6.59141237 8.65745541,6.68018275 C8.52167185,6.76895313 8.37582587,6.84248967 8.21991748,6.90079236 C8.06652798,6.95913474 7.90559494,7.00094017 7.73711838,7.02620864 C7.57116069,7.05412302 7.40645589,7.06808021 7.24300397,7.06808021 C6.86833318,7.06808021 6.5376707,7.02495183 6.25101652,6.93869506 C5.96436234,6.84992468 5.71416637,6.73201619 5.50042861,6.58496958 L5.54108497,5.23890766 Z" id="Path"></path>
                            <path d="M10.0081279,4.54435551 C10.0081279,4.18174637 10.0697619,3.83562126 10.192951,3.5059802 C10.3186328,3.17633913 10.4959123,2.88599649 10.7247896,2.63495227 C10.9561202,2.38392127 11.233978,2.18486924 11.5583629,2.03779617 C11.8827348,1.88819625 12.2460902,1.81339629 12.6484294,1.81339629 C12.9778259,1.81339629 13.2934013,1.86915891 13.5951557,1.98068414 C13.8994158,2.09220937 14.1672177,2.2570299 14.3985614,2.47514574 C14.629892,2.69322188 14.8134556,2.96200695 14.9492523,3.28150094 C15.0875416,3.60100816 15.1566863,3.96869084 15.1566863,4.38454898 C15.1566863,4.65079397 15.1240195,4.90182496 15.058686,5.13764196 C14.9958451,5.37347218 14.9053227,5.59027829 14.7871188,5.78806028 C14.6714076,5.98584227 14.5331052,6.16461338 14.3722115,6.32437361 C14.2112785,6.48158053 14.0339989,6.61470302 13.8403729,6.7237411 C13.64676,6.83275271 13.4405658,6.91642971 13.2217902,6.97477209 C13.0030278,7.03311447 12.7779748,7.06228566 12.5466311,7.06228566 C12.1920851,7.06228566 11.8601698,7.00142966 11.550885,6.87971766 C11.244106,6.75800567 10.9763041,6.58684817 10.7474792,6.36624518 C10.5186544,6.14564219 10.3376031,5.88066062 10.2043253,5.57130048 C10.0735271,5.26194033 10.0081279,4.91961873 10.0081279,4.54433566 L10.0081279,4.54435551 Z M10.9813025,4.50248394 C10.9813025,4.73830093 11.024071,4.9576405 11.1096081,5.16050264 C11.1976378,5.36081149 11.315822,5.53450244 11.4641606,5.68157551 C11.6125255,5.82864859 11.7872861,5.94402362 11.9884426,6.02770062 C12.1896122,6.10879785 12.4046094,6.14934647 12.6334342,6.14934647 C12.8496908,6.14934647 13.0521133,6.11131147 13.2407015,6.03524147 C13.4318087,5.95665785 13.5965135,5.84508632 13.7348159,5.70052687 C13.8756241,5.55345379 13.9862648,5.37595272 14.0667379,5.16802365 C14.1471585,4.96009458 14.1873688,4.72680444 14.1873688,4.46815322 C14.1873688,4.23994322 14.1508974,4.02187369 14.0779548,3.81394462 C14.0050121,3.60601555 13.8981432,3.42344756 13.7573481,3.26624064 C13.6190457,3.10648041 13.4493097,2.97969488 13.2481401,2.88588404 C13.0494894,2.79208642 12.8244364,2.74518761 12.572981,2.74518761 C12.3265502,2.74518761 12.1052689,2.79334323 11.9091371,2.88965446 C11.7130053,2.98345208 11.5457882,3.11150765 11.4074857,3.27382118 C11.2691833,3.43356817 11.1635739,3.61994628 11.0906574,3.83295551 C11.0177148,4.0459515 10.9812434,4.26909457 10.9812434,4.50238471 L10.9813025,4.50248394 Z" id="Shape"></path>
                            <path d="M15.9118003,4.50466681 C15.9118003,4.09895575 15.9847233,3.73127307 16.1305693,3.40161878 C16.278921,3.06945086 16.480084,2.78672183 16.7340583,2.55343169 C16.9880326,2.32014154 17.2860086,2.14010701 17.6279864,2.01332809 C17.9699642,1.88394295 18.3370915,1.81925037 18.7293682,1.81925037 C18.9984164,1.81925037 19.231013,1.84081456 19.4271579,1.88394295 C19.6232897,1.92707133 19.8005627,1.98792732 19.9589769,2.06651094 L19.9589769,3.23802198 L19.9511054,3.24595972 C19.9033515,3.17240334 19.8367126,3.10394034 19.7511887,3.04057072 C19.6656516,2.97720111 19.5675857,2.9226953 19.456991,2.8770533 C19.3488889,2.8314113 19.2307047,2.79588992 19.1024384,2.77048916 C18.974264,2.74508839 18.8422457,2.73238801 18.7063834,2.73238801 C18.4322974,2.73238801 18.1821014,2.77551639 17.9557955,2.86177315 C17.7319953,2.9455163 17.5396353,3.06343141 17.3787153,3.21551849 C17.2177823,3.36765848 17.0933075,3.54769301 17.0052909,3.75562208 C16.9172612,3.96355115 16.8732463,4.19049772 16.8732463,4.43646179 C16.8732463,4.75849586 16.926051,5.02981439 17.0316604,5.25041738 C17.1372699,5.46849353 17.2718006,5.64472456 17.4352525,5.77911048 C17.6012102,5.91350963 17.7835143,6.00986716 17.982165,6.06818309 C18.1808157,6.12652547 18.3731758,6.15569666 18.5592452,6.15569666 C18.6975476,6.15569666 18.8371095,6.14048266 18.9779308,6.11005466 C19.1212579,6.07711304 19.2570415,6.03021423 19.3852815,5.96935824 C19.5160798,5.90850224 19.6367828,5.8349657 19.7473907,5.74874863 C19.8579854,5.66249187 19.9510201,5.56486429 20.0264948,5.45586591 L20.038302,5.46380365 L20.038302,6.54782096 C19.8471949,6.70756795 19.61837,6.83435349 19.3518276,6.92817756 C19.0852851,7.02197517 18.7860562,7.06887398 18.4541408,7.06887398 C18.0618641,7.06887398 17.7085644,7.00550437 17.3942419,6.87876514 C17.0799194,6.7520259 16.8121174,6.57579487 16.5908362,6.35007204 C16.3720738,6.12438889 16.2036038,5.85433379 16.0854261,5.53990672 C15.9697149,5.22547965 15.9118593,4.88062459 15.9118593,4.50534152 L15.9118003,4.50466681 Z" id="Path"></path>
                            <path d="M21.1660337,1.90505733 C21.2288746,1.90770324 21.280433,1.91034916 21.3207089,1.91299507 C21.3634774,1.91564098 21.4024414,1.9182869 21.4376008,1.92093281 C21.475384,1.92093281 21.5131017,1.92093281 21.5507538,1.92093281 C21.5910297,1.92093281 21.6375372,1.92093281 21.6902763,1.92093281 C21.7733207,1.92093281 21.8562996,1.9182869 21.9392128,1.91299507 C22.0247499,1.90770324 22.0875908,1.90009624 22.1277355,1.89017407 L22.1277355,7.00207791 C22.1050393,6.999432 22.0723725,6.99678608 22.0297352,6.99414017 C21.9869666,6.99149426 21.9366546,6.98884834 21.878799,6.98620243 C21.8209434,6.98355652 21.7567906,6.98091061 21.6863405,6.97826469 C21.6158905,6.97826469 21.5429675,6.97826469 21.4675716,6.97826469 L21.1658369,6.97826469 L21.1660337,1.90505733 Z" id="Path"></path>
                            <path d="M24.5507833,2.34163297 C24.5935518,2.21992097 24.6224796,2.13117044 24.6375667,2.07538136 C24.6526537,2.01703898 24.6601973,1.9739106 24.6601973,1.94599622 C24.6601973,1.93078222 24.6588854,1.9206616 24.6562615,1.91563437 L24.6601973,1.90769663 C24.7682994,1.91298846 24.8638529,1.91695732 24.946858,1.91960324 C25.0297713,1.91960324 25.1077255,1.91960324 25.1807206,1.91960324 C25.2536633,1.91960324 25.3353827,1.91960324 25.4258788,1.91960324 C25.5188938,1.91695732 25.6182192,1.91431141 25.7238548,1.9116655 L25.7277906,1.91960324 C25.7225429,1.93481724 25.7199191,1.94493785 25.7199191,1.94996509 C25.7199191,1.97536585 25.7274626,2.01723743 25.7425497,2.07557981 C25.7576367,2.13140857 25.7878109,2.22142253 25.833072,2.34562168 L27.5077556,6.98979426 C27.4575091,6.98714835 27.3984072,6.98450243 27.3304498,6.98185652 C27.2626237,6.98185652 27.1972245,6.98053356 27.1342524,6.97788765 C27.0714115,6.97788765 27.0148023,6.97788765 26.9644246,6.97788765 C26.9166708,6.97788765 26.887743,6.97788765 26.8776412,6.97788765 L26.3797681,6.97788765 L26.0252156,5.88245984 L24.3203448,5.88245984 L23.9657923,7.00830903 C23.8300087,6.99507947 23.6942186,6.98621566 23.5584219,6.98171761 C23.4251572,6.9790717 23.3082325,6.97774874 23.2076477,6.97774874 L22.9096717,6.97774874 L24.5507833,2.34163297 Z M25.7313721,4.96981831 L25.1618093,3.20115118 L24.6073598,4.96981831 L25.7313721,4.96981831 Z" id="Shape"></path>
                            <path d="M27.9552116,4.50466681 C27.9552116,4.09895575 28.0281346,3.73127307 28.1739806,3.40161878 C28.3223455,3.06945086 28.523515,2.78672183 28.7774893,2.55343169 C29.0314505,2.32014154 29.3294265,2.14010701 29.6714174,2.01332809 C30.0133952,1.88394295 30.3805159,1.81925037 30.7727795,1.81925037 C31.0418409,1.81925037 31.2744375,1.84081456 31.4705693,1.88394295 C31.6667142,1.92707133 31.8439937,1.98792732 32.0024079,2.06651094 L32.0024079,3.23802198 L31.9945364,3.24595972 C31.9467826,3.17240334 31.8801502,3.10394034 31.7946394,3.04057072 C31.7091023,2.97720111 31.6110364,2.9226953 31.5004417,2.8770533 C31.3923396,2.8314113 31.2741554,2.79588992 31.1458891,2.77048916 C31.0175835,2.74508839 30.8855652,2.73238801 30.7498341,2.73238801 C30.4757481,2.73238801 30.2255521,2.77551639 29.9992462,2.86177315 C29.775446,2.9455163 29.5830794,3.06343141 29.4221464,3.21551849 C29.2612133,3.36765848 29.1367451,3.54769301 29.0487416,3.75562208 C28.9607119,3.96355115 28.916697,4.19049772 28.916697,4.43646179 C28.916697,4.75849586 28.9695017,5.02981439 29.0751111,5.25041738 C29.1807206,5.46849353 29.3152447,5.64472456 29.4786835,5.77911048 C29.6446543,5.91350963 29.8269651,6.00986716 30.0256157,6.06818309 C30.2242533,6.12652547 30.4166134,6.15569666 30.6026959,6.15569666 C30.7409983,6.15569666 30.8805536,6.14048266 31.0213618,6.11005466 C31.1647021,6.07711304 31.3004922,6.03021423 31.4287322,5.96935824 C31.5595305,5.90850224 31.680227,5.8349657 31.7908217,5.74874863 C31.9014164,5.66249187 31.9944577,5.56486429 32.0699455,5.45586591 L32.0817527,5.46380365 L32.0817527,6.54782096 C31.8906456,6.70756795 31.6618208,6.83435349 31.3952783,6.92817756 C31.1287358,7.02197517 30.8295003,7.06887398 30.4975718,7.06887398 C30.1053082,7.06887398 29.7520152,7.00550437 29.4376926,6.87876514 C29.1233701,6.7520259 28.8555682,6.57579487 28.6342869,6.35007204 C28.4155245,6.12438889 28.2470479,5.85433379 28.1288572,5.53990672 C28.013146,5.22547965 27.9552904,4.88062459 27.9552904,4.50534152 L27.9552116,4.50466681 Z" id="Path"></path>
                            <path d="M33.1897663,1.90505733 C33.2526071,1.90770324 33.3041655,1.91034916 33.3444414,1.91299507 C33.38721,1.91564098 33.426174,1.9182869 33.4613334,1.92093281 C33.4991166,1.92093281 33.5368343,1.92093281 33.5744863,1.92093281 C33.6147622,1.92093281 33.6612697,1.92093281 33.7140089,1.92093281 C33.7970533,1.92093281 33.8800321,1.9182869 33.9629454,1.91299507 C34.0484825,1.90770324 34.1113234,1.90009624 34.1514681,1.89017407 L34.1514681,7.00207791 C34.1289031,6.999432 34.0962363,6.99678608 34.0534678,6.99414017 C34.0106992,6.99149426 33.9603871,6.98884834 33.9025315,6.98620243 C33.8446759,6.98355652 33.7805887,6.98091061 33.7102699,6.97826469 C33.6398199,6.97826469 33.5668969,6.97826469 33.4915009,6.97826469 L33.1897466,6.97826469 L33.1897663,1.90505733 Z" id="Path"></path>
                            <path d="M37.7749212,0.297665208 C37.9157426,0.297665208 38.0389579,0.296342252 38.1445674,0.293696339 C38.2501768,0.291050426 38.3482427,0.287081556 38.4387651,0.28178973 C38.5292875,0.273851991 38.6172975,0.266244992 38.7027952,0.258968731 C38.7883323,0.251030992 38.8813736,0.242167184 38.981919,0.232377306 L38.9779832,0.258968731 L37.9897544,1.48751242 L37.1373289,1.48751242 L37.7749212,0.297665208 Z M35.2402751,4.56142165 C35.2402751,4.19881251 35.3018894,3.8526874 35.4250785,3.52304634 C35.5507603,3.19340527 35.7280333,2.90306263 35.9568974,2.6520184 C36.1882411,2.40098741 36.4660989,2.20193538 36.7904707,2.05486231 C37.1148557,1.90526239 37.4782112,1.83046243 37.8805372,1.83046243 C38.2099468,1.83046243 38.5255222,1.88622505 38.8272635,1.99775028 C39.1315236,2.10927551 39.3993255,2.27409604 39.6306692,2.49221188 C39.8620129,2.71028802 40.0455766,2.97907309 40.1813601,3.29856708 C40.3196626,3.6180743 40.3888138,3.98575698 40.3888138,4.40161512 C40.3888138,4.66786011 40.356147,4.9188911 40.2908135,5.1547081 C40.2279726,5.39053832 40.1374502,5.60734443 40.0192464,5.80512642 C39.9035351,6.00290841 39.7652327,6.18167952 39.604339,6.34143975 C39.443406,6.49864666 39.266133,6.63176916 39.0725201,6.74080723 C38.878894,6.84981885 38.6726998,6.93349585 38.4539374,6.99183823 C38.2351619,7.05018061 38.0101088,7.0793518 37.7787783,7.0793518 C37.4242192,7.0793518 37.0922973,7.0184958 36.7830125,6.8967838 C36.4762335,6.77507181 36.2084316,6.60391431 35.9796067,6.38331132 C35.7507819,6.16270833 35.5697372,5.89772676 35.4364725,5.58836661 C35.3056742,5.27900647 35.2402751,4.93668487 35.2402751,4.5614018 L35.2402751,4.56142165 Z M36.21343,4.51955007 C36.21343,4.75536707 36.2561985,4.97470664 36.3417356,5.17756878 C36.4297653,5.37787762 36.5479495,5.55156858 36.6962881,5.69864165 C36.844653,5.84571472 37.0194202,5.96108976 37.2205898,6.04476676 C37.4217462,6.12586399 37.6367369,6.1664126 37.8655617,6.1664126 C38.0818183,6.1664126 38.2842408,6.12837761 38.472829,6.05230761 C38.6639362,5.97372399 38.828641,5.86215246 38.9669434,5.717593 C39.1077517,5.57051993 39.2183923,5.39301886 39.2988654,5.18508979 C39.379286,4.97716072 39.4194963,4.74387058 39.4194963,4.48521935 C39.4194963,4.25700936 39.3830249,4.03893983 39.3100823,3.83101076 C39.2371396,3.62308169 39.1302707,3.4405137 38.9894756,3.28330678 C38.8511732,3.12354655 38.6814372,2.99676102 38.4802676,2.90295017 C38.28163,2.80915256 38.056577,2.76225375 37.8051085,2.76225375 C37.5586908,2.76225375 37.3374161,2.81040937 37.1412843,2.9067206 C36.9451394,3.00051821 36.7779157,3.12857379 36.6396132,3.29088732 C36.5013108,3.45063431 36.3957014,3.63701242 36.3227849,3.85002164 C36.2498423,4.06301764 36.2133709,4.28616071 36.2133709,4.51945085 L36.21343,4.51955007 Z" id="Shape"></path>
                            <path d="M41.3761374,6.98521021 C41.3840089,6.94208183 41.3892565,6.90027641 41.3918804,6.85979394 C41.3971281,6.81666556 41.3997519,6.76467337 41.3997519,6.70381737 L41.3997519,1.92648923 L42.2295666,1.92648923 C42.3603648,2.17499337 42.4923766,2.41842398 42.6256019,2.65678105 C42.7588797,2.89513812 42.8971822,3.13729869 43.0405093,3.38326275 C43.1838364,3.62668675 43.334707,3.88025781 43.4931211,4.14397596 C43.6515353,4.40515403 43.8212713,4.68281613 44.0023292,4.97696228 L44.0023292,2.18506107 C44.0023292,2.045595 43.9897347,1.95937792 43.9645459,1.92640985 L44.9829423,1.92640985 C44.9776946,1.96702461 44.9724469,2.01518023 44.9671993,2.0708767 C44.9645754,2.12419184 44.9632635,2.18756146 44.9632635,2.26098554 L44.9632635,6.98513084 L44.1410055,6.98513084 C44.002703,6.76959477 43.8769688,6.57560966 43.7638027,6.40317551 C43.653208,6.22821452 43.548858,6.06593406 43.4507527,5.91633414 C43.3552451,5.76672099 43.2634632,5.62345142 43.1754073,5.48652542 C43.0898702,5.34705935 43.0043725,5.20632324 42.9189141,5.06431709 C42.833377,4.92232417 42.745367,4.77271764 42.654884,4.61549749 C42.5643616,4.4557505 42.4662957,4.27951947 42.3606862,4.0868044 L42.3606862,6.9850713 L41.3761374,6.98521021 Z" id="Path"></path>
                        </g>
                        <g transform="translate(12.930969, 0.441176)" fill="#1A83B0">
                            <path d="M0.428768055,0.432375562 C1.11638387,0.349558487 1.80402592,0.28744568 2.49169422,0.246037142 C3.17932315,0.204628604 3.84643368,0.183924335 4.49302581,0.183924335 C6.40199834,0.183924335 8.0902406,0.442661549 9.55775257,0.960135976 C11.0253957,1.47759717 12.2569592,2.20204814 13.2524429,3.13348888 C14.2479529,4.06494285 15.002306,5.17232357 15.5155022,6.45563105 C16.028646,7.73895175 16.2852179,9.14644515 16.2852179,10.6781112 C16.2852179,12.4581492 15.9824599,14.0312767 15.376944,15.3974939 C14.7816872,16.7532597 13.960623,17.8916637 12.9137515,18.812706 C11.8771916,19.733788 10.6559267,20.4323752 9.24995683,20.9084676 C7.85420679,21.3741879 6.36091562,21.6070481 4.77008331,21.6070481 C4.45192996,21.6070481 4.10812206,21.596729 3.73865958,21.5760909 C3.37945631,21.5554528 3.00998728,21.529589 2.63025248,21.4984995 C2.25051769,21.4674101 1.87078945,21.4260015 1.49106778,21.3742739 C1.12159219,21.3225463 0.767518517,21.265593 0.428768055,21.2034141 L0.428768055,0.432375562 Z M4.35429043,17.7882416 C4.81612508,17.8502883 5.2933551,17.8813116 5.78598048,17.8813116 C6.66858673,17.8813116 7.50500034,17.7467736 8.29522129,17.4776974 C9.09572769,17.2086081 9.79360271,16.8049807 10.3888463,16.2668152 C10.98409,15.7286497 11.4561904,15.0610859 11.8051476,14.2641237 C12.1540917,13.4568821 12.3285637,12.5254546 12.3285637,11.4698412 C12.3285637,10.3107196 12.1540917,9.2654517 11.8051476,8.33403742 C11.4664627,7.40259668 10.9738373,6.61087337 10.3272715,5.9588675 C9.68070557,5.29651611 8.89558797,4.78940043 7.97191867,4.43752047 C7.04824937,4.0856405 6.00658612,3.90970052 4.84692893,3.90970052 C4.76480284,3.90970052 4.68269642,3.90970052 4.60060968,3.90970052 C4.51848359,3.90970052 4.43638373,3.91499235 4.35429043,3.925576 L4.35429043,17.7882416 Z" id="Shape"></path>
                            <path d="M20.442084,0.452219909 C21.0783907,0.359083773 21.7249565,0.291811436 22.3817816,0.250402898 C23.048879,0.1986753 23.8083486,0.172811501 24.6601904,0.172811501 C26.0765376,0.172811501 27.3388655,0.338405963 28.4471742,0.669594889 C29.5658339,0.990425065 30.5049052,1.4457933 31.2643879,2.03569959 C32.0238443,2.61526037 32.6037057,3.31384754 33.0039721,4.1314611 C33.4042253,4.94906144 33.6043519,5.84946562 33.6043519,6.83267364 C33.6043519,7.83655948 33.3785641,8.75766793 32.9269887,9.59599899 C32.4754132,10.4343036 31.8134192,11.1484355 30.9410065,11.7383947 L34.1431371,18.7863131 C34.4715496,19.5211228 34.7435169,20.0799925 34.9590388,20.4629223 C35.1745608,20.8354933 35.374694,21.0942239 35.5594383,21.2391141 L35.4824943,21.3167055 C35.2259224,21.2752969 34.9744801,21.2442736 34.7281674,21.2236355 C34.4818547,21.2130518 34.2355421,21.20776 33.9892294,21.20776 C33.5992354,21.20776 33.1527961,21.2130518 32.6499115,21.2236355 C32.1572861,21.2442736 31.5876905,21.2805226 30.9411246,21.3323825 L27.431218,13.0580835 C27.123337,13.1098111 26.8051836,13.1512196 26.476758,13.1823091 C26.1586046,13.2030795 25.8250625,13.2134647 25.4761315,13.2134647 C25.3016595,13.2134647 25.1169217,13.2081729 24.9219181,13.1975893 C24.7371869,13.1870056 24.5524557,13.1714609 24.3677244,13.150955 L24.3677244,21.2079584 L20.442084,21.2079584 L20.442084,0.452219909 Z M24.3676064,9.56474414 C24.6447098,9.61647174 24.9115474,9.64749507 25.1681193,9.65781413 C25.4246912,9.65781413 25.6658677,9.65781413 25.8916489,9.65781413 C26.4253373,9.65781413 26.9230989,9.58536903 27.3849335,9.44047884 C27.8467682,9.29557542 28.2470214,9.09893117 28.5856931,8.85054609 C28.924378,8.60217424 29.1912156,8.31239385 29.3862061,7.98120493 C29.5812096,7.65002923 29.6787114,7.29297651 29.6787114,6.91004675 C29.6787114,6.50642596 29.57608,6.12350282 29.3708173,5.76127734 C29.1655545,5.3886931 28.8627965,5.06786293 28.4625433,4.79878681 C28.0725493,4.51935194 27.5850535,4.30201665 27.000056,4.14678094 C26.4150716,3.98118648 25.7428445,3.89838924 24.983375,3.89838924 C24.8704188,3.89838924 24.7626578,3.89838924 24.660092,3.89838924 C24.5575,3.89838924 24.4600048,3.90368107 24.3676064,3.91426472 L24.3676064,9.56474414 Z" id="Shape"></path>
                            <path d="M38.6841722,0.491908604 C39.2077261,0.522998081 39.6028562,0.54370235 39.8697005,0.55402141 C40.1365316,0.564605062 40.3417878,0.569896888 40.4854691,0.569896888 C40.8241539,0.569896888 41.1012573,0.569896888 41.3167793,0.569896888 C41.5425605,0.559313236 41.7324279,0.548928028 41.8863815,0.538741263 C42.040322,0.528157611 42.1737376,0.517838551 42.2866281,0.507784082 C42.4098173,0.48714596 42.5329736,0.466441692 42.6560972,0.445671275 L42.6560972,13.842987 C42.6560972,14.5260426 42.7484628,15.1211283 42.933194,15.628244 C43.1179384,16.1353596 43.3745168,16.5545119 43.7029294,16.8857009 C44.0313419,17.2168766 44.4162063,17.465255 44.8575226,17.6308363 C45.2988257,17.7964307 45.7811853,17.879228 46.3046014,17.879228 C46.7664361,17.879228 47.1923504,17.7964307 47.5823444,17.6308363 C47.9825976,17.465255 48.3212759,17.1961723 48.5983793,16.8235881 C48.8857419,16.4406715 49.1064,15.943908 49.2603537,15.3332974 C49.4245534,14.7226736 49.5066532,13.9671332 49.5066532,13.0666761 L49.5066532,0.492107047 C49.7529659,0.512877464 49.9684879,0.528422203 50.1532191,0.538741263 C50.3482227,0.549324915 50.5278309,0.559710123 50.6920437,0.569896888 C50.8665157,0.569896888 51.0358516,0.569896888 51.2000513,0.569896888 C51.3745234,0.569896888 51.5695204,0.569896888 51.7850423,0.569896888 C52.1750363,0.569896888 52.4931897,0.55951168 52.7395024,0.538741263 C52.9960742,0.518103142 53.2423869,0.487079813 53.4784404,0.445671275 L53.4784404,13.2839717 C53.4784404,14.5983422 53.3039684,15.7729952 52.9550243,16.8079309 C52.6060803,17.832521 52.118591,18.7018357 51.4925567,19.415875 C50.8665092,20.1299804 50.1121561,20.6733187 49.2294973,21.0458897 C48.3571372,21.4184739 47.3975344,21.604766 46.3506891,21.604766 C45.2422754,21.604766 44.2159616,21.4546964 43.2717477,21.1545573 C42.3378061,20.8440859 41.532157,20.36802 40.8548003,19.7263596 C40.1774437,19.0743405 39.6437684,18.2463682 39.2537744,17.2424427 C38.8740396,16.2385569 38.6841722,15.03804 38.6841722,13.6408921 L38.6841722,0.491908604 Z" id="Path"></path>
                            <path d="M58.9928076,0.452219909 C60.2551486,0.265921178 61.5123601,0.172771812 62.7644419,0.172771812 C64.149959,0.172771812 65.4071704,0.353884554 66.5360762,0.716110038 C67.6650083,1.07834875 68.6297275,1.60099594 69.4302339,2.2840516 C70.2307535,2.95676174 70.8465352,3.78473405 71.2775791,4.76796854 C71.708623,5.74080459 71.924145,6.84302578 71.924145,8.07463211 C71.924145,8.88188693 71.8061248,9.63736122 71.5700844,10.341055 C71.3442902,11.0448149 71.0312664,11.6864753 70.6310132,12.2660361 C70.23076,12.8352513 69.7586596,13.3475464 69.214712,13.8029212 C68.6810367,14.2479505 68.1011753,14.6257009 67.4751278,14.9361724 C66.8490934,15.246657 66.1973979,15.4846966 65.5200413,15.650291 C64.8426716,15.8055267 64.1653281,15.8831446 63.4880108,15.8831446 C63.3956518,15.8831446 63.3032862,15.8831446 63.210914,15.8831446 C63.1185549,15.872561 63.0210597,15.8622419 62.9184283,15.8521874 L62.9184283,21.2079783 L58.9928076,21.2079783 L58.9928076,0.452219909 Z M62.9183299,12.1417311 C62.9798589,12.1625015 63.036337,12.1728867 63.0877642,12.1728867 C63.1492932,12.1728867 63.2159977,12.1728867 63.2878777,12.1728867 C63.8831344,12.1728867 64.4629958,12.0952622 65.0274619,11.9400133 C65.5919279,11.7847776 66.0896829,11.5519174 66.5207268,11.2414327 C66.962043,10.9206026 67.3161167,10.5221545 67.5829478,10.0460886 C67.849792,9.57000951 67.9832141,9.00596701 67.9832141,8.35396114 C67.9832141,7.70195527 67.8703235,7.1068696 67.6445424,6.56870414 C67.4290204,6.02017992 67.1262559,5.54928018 66.7362488,5.1560049 C66.3462548,4.76272963 65.8792905,4.45742435 65.335356,4.24008906 C64.7914215,4.02275377 64.1910351,3.91408612 63.5341969,3.91408612 C63.4212408,3.91408612 63.3134798,3.91408612 63.210914,3.91408612 C63.108322,3.91408612 63.0108267,3.91937795 62.9184283,3.9299616 L62.9183299,12.1417311 Z" id="Shape"></path>
                            <path d="M80.3442803,2.2977442 C80.5187523,1.80097404 80.6367791,1.43874194 80.6983605,1.2110479 C80.7598895,0.973021572 80.790654,0.797088205 80.790654,0.683247799 C80.790654,0.621201141 80.7854063,0.579792603 80.774911,0.559022186 L80.790654,0.528065004 C81.2319702,0.548703125 81.6219642,0.564247864 81.960636,0.57469922 C82.2993208,0.57469922 82.6174742,0.57469922 82.915096,0.57469922 C83.2127309,0.57469922 83.5462796,0.57469922 83.9157421,0.57469922 C84.2954769,0.564115568 84.7008663,0.55373036 85.1319102,0.543543595 L85.1476532,0.57469922 C85.1271873,0.636745879 85.1169543,0.678154417 85.1169543,0.698924834 C85.1169543,0.80238003 85.1477188,0.973140638 85.2092478,1.21120666 C85.2707768,1.4389007 85.3939331,1.80630556 85.5787168,2.31342123 L92.4139431,21.2683448 C92.2086935,21.2577611 91.967517,21.2474421 91.6904135,21.2373876 C91.4133101,21.2373876 91.1464725,21.2320958 90.8899006,21.2215121 C90.6333156,21.2215121 90.4023983,21.2215121 90.1971486,21.2215121 C90.0021451,21.2215121 89.8841183,21.2215121 89.8430684,21.2215121 L87.8110379,21.2215121 L86.3639394,16.7505807 L79.4055239,16.7505807 L77.9584451,21.3457377 C77.4042383,21.2940101 76.850038,21.2577611 76.2958443,21.2369907 C75.7518966,21.2264071 75.2746666,21.2211152 74.8641542,21.2211152 L73.6479861,21.2211152 L80.3442803,2.2977442 Z M85.1628256,13.0248045 L82.8381717,5.80622478 L80.5751123,13.0248045 L85.1628256,13.0248045 Z" id="Shape"></path>
                            <path d="M95.5166171,0.472064257 C95.5987432,0.492702378 95.8142652,0.513406647 96.163183,0.534177063 C96.5223863,0.55494748 96.9483006,0.565332688 97.440926,0.565332688 C97.656448,0.565332688 97.9130264,0.560040862 98.2106613,0.549457211 C98.5082832,0.538873559 98.9188021,0.52332882 99.4422182,0.502822995 L99.4422182,17.4862107 L103.552524,17.4862107 C103.706478,17.4862107 103.891216,17.4862107 104.106738,17.4862107 C104.32226,17.475627 104.537782,17.4652418 104.753304,17.455055 C104.968826,17.4444714 105.168952,17.4341523 105.353683,17.4240979 C105.538428,17.4135142 105.676979,17.403129 105.769339,17.3929422 L105.707744,19.2868867 C105.697249,19.5249131 105.68695,19.762946 105.676848,20.0009856 C105.676848,20.2390251 105.671601,20.4511876 105.661105,20.6374731 C105.661105,20.8237587 105.661105,20.9789944 105.661105,21.1031803 C105.661105,21.2274059 105.661105,21.2998576 105.661105,21.3205354 C105.373743,21.2998973 105.070985,21.279193 104.752831,21.2584226 C104.444937,21.247839 104.095993,21.2375199 103.705999,21.2274654 C103.326264,21.2274654 102.89522,21.2221736 102.412867,21.21159 C101.930501,21.21159 101.376301,21.21159 100.750267,21.21159 L98.21013,21.21159 C97.9022359,21.21159 97.6046075,21.21159 97.3172449,21.21159 C97.0298823,21.2221736 96.7681742,21.2325588 96.5321207,21.2427456 C96.2960672,21.2533292 96.0908045,21.2636483 95.9163324,21.2737028 C95.7418604,21.2842864 95.6084449,21.2946055 95.5160858,21.3046599 L95.5166171,0.472064257 Z" id="Path"></path>
                        </g>
                    </g>
                </g>
            </g>
        </g>
    </g>
</svg>